# Blender 4.4.1
# www.blender.org
mtllib Allow.mtl
o Cube
v 0.097659 0.037132 -1.000000
v 0.097659 -0.190216 -1.000000
v 0.097659 0.037132 1.000000
v 0.097659 -0.190216 1.000000
v -0.125034 0.037132 -1.000000
v -0.125034 -0.190216 -1.000000
v -0.125034 0.037132 1.000000
v -0.125034 -0.190216 1.000000
v 0.097659 -0.190216 -1.308534
v -0.125034 -0.190216 -1.308534
v 0.097659 0.037132 -1.308534
v -0.125034 0.037132 -1.308534
v -0.125034 0.898762 -0.055529
v 0.097659 0.898762 -0.055529
v -0.125034 0.898762 -0.364062
v 0.097659 0.898762 -0.364062
v 0.097659 -1.035252 -0.055529
v -0.125034 -1.035252 -0.055529
v 0.097659 -1.035252 -0.364062
v -0.125034 -1.035252 -0.364062
vn -0.0000 1.0000 -0.0000
vn -0.0000 -0.0000 1.0000
vn -1.0000 -0.0000 -0.0000
vn -0.0000 -1.0000 -0.0000
vn 1.0000 -0.0000 -0.0000
vn -0.0000 -0.0000 -1.0000
vn -0.0000 0.7388 -0.6740
vn -0.0000 -0.7388 0.6740
vn -0.0000 0.7452 0.6668
vn -0.0000 -0.7452 -0.6668
vt 0.625000 0.500000
vt 0.875000 0.500000
vt 0.875000 0.750000
vt 0.625000 0.750000
vt 0.375000 0.750000
vt 0.625000 1.000000
vt 0.375000 1.000000
vt 0.375000 0.000000
vt 0.625000 0.000000
vt 0.625000 0.250000
vt 0.375000 0.250000
vt 0.125000 0.500000
vt 0.375000 0.500000
vt 0.125000 0.750000
s 0
usemtl Material
f 1/1/1 5/2/1 7/3/1 3/4/1
f 4/5/2 3/4/2 7/6/2 8/7/2
f 8/8/3 7/9/3 5/10/3 6/11/3
f 6/12/4 2/13/4 4/5/4 8/14/4
f 2/13/5 1/1/5 3/4/5 4/5/5
f 6/11/3 5/10/3 12/10/3 10/11/3
f 10/11/6 12/10/6 11/1/6 9/13/6
f 6/11/3 10/11/3 20/11/3 18/11/3
f 11/1/7 12/10/7 15/10/7 16/1/7
f 1/1/5 2/13/5 9/13/5 11/1/5
f 13/2/1 14/1/1 16/1/1 15/2/1
f 12/10/3 5/10/3 13/10/3 15/10/3
f 5/2/8 1/1/8 14/1/8 13/2/8
f 1/1/5 11/1/5 16/1/5 14/1/5
f 17/13/4 18/12/4 20/12/4 19/13/4
f 9/13/5 2/13/5 17/13/5 19/13/5
f 2/13/9 6/12/9 18/12/9 17/13/9
f 10/11/10 9/13/10 19/13/10 20/11/10
